HIERARCHY
ROOT Hips
{
  OFFSET -187.679 86.5976 -156.378
  CHANNELS 6 Xposition Yposition Zposition Zrotation Xrotation Yrotation
  JOINT LeftUpLeg
  {
    OFFSET 8.64259 1.95398 -2.38835
    CHANNELS 3 Zrotation Xrotation Yrotation
    JOINT LeftLeg
    {
      OFFSET 43.7702 0 0
      CHANNELS 3 Zrotation Xrotation Yrotation
      JOINT LeftFoot
      {
        OFFSET 40.6238 0 0
        CHANNELS 3 Zrotation Xrotation Yrotation
        JOINT LeftToeBase
        {
          OFFSET 12.7242 0 0
          CHANNELS 3 Zrotation Xrotation Yrotation
          End Site
          {
            OFFSET 0 0 0
          }
        }
      }
    }
  }
  JOINT RightUpLeg
  {
    OFFSET -8.2249 1.95398 -2.59336
    CHANNELS 3 Zrotation Xrotation Yrotation
    JOINT RightLeg
    {
      OFFSET 43.5653 0 0
      CHANNELS 3 Zrotation Xrotation Yrotation
      JOINT RightFoot
      {
        OFFSET 40.6238 0 0
        CHANNELS 3 Zrotation Xrotation Yrotation
        JOINT RightToeBase
        {
          OFFSET 12.7242 0 0
          CHANNELS 3 Zrotation Xrotation Yrotation
          End Site
          {
            OFFSET 0 0 0
          }
        }
      }
    }
  }
  JOINT Spine
  {
    OFFSET 0.165834 0.87714 6.61349
    CHANNELS 3 Zrotation Xrotation Yrotation
    JOINT Spine1
    {
      OFFSET 7.38963 1.71661e-005 0
      CHANNELS 3 Zrotation Xrotation Yrotation
      JOINT Spine2
      {
        OFFSET 11.9445 1.14441e-005 0
        CHANNELS 3 Zrotation Xrotation Yrotation
        JOINT Spine3
        {
          OFFSET 14.7254 4.19617e-005 0
          CHANNELS 3 Zrotation Xrotation Yrotation
          JOINT Spine4
          {
            OFFSET 10.9679 0 0
            CHANNELS 3 Zrotation Xrotation Yrotation
            JOINT RightShoulder
            {
              OFFSET 2.46616 -1.6653 3.69651
              CHANNELS 3 Zrotation Xrotation Yrotation
              JOINT RightArm
              {
                OFFSET 13.0012 0 0
                CHANNELS 3 Zrotation Xrotation Yrotation
                JOINT RightForeArm
                {
                  OFFSET 28.7848 1.52588e-005 0
                  CHANNELS 3 Zrotation Xrotation Yrotation
                  JOINT RightHand
                  {
                    OFFSET 26.5688 1.52588e-005 0
                    CHANNELS 3 Zrotation Xrotation Yrotation
                    End Site
                    {
                      OFFSET 0 0 0
                    }
                  }
                }
              }
            }
            JOINT LeftShoulder
            {
              OFFSET 2.38034 -1.29275 -3.7523
              CHANNELS 3 Zrotation Xrotation Yrotation
              JOINT LeftArm
              {
                OFFSET 16.3182 6.10352e-005 0
                CHANNELS 3 Zrotation Xrotation Yrotation
                JOINT LeftForeArm
                {
                  OFFSET 27.0901 0 0
                  CHANNELS 3 Zrotation Xrotation Yrotation
                  JOINT LeftHand
                  {
                    OFFSET 24.5451 1.52588e-005 0
                    CHANNELS 3 Zrotation Xrotation Yrotation
                    End Site
                    {
                      OFFSET 0 0 0
                    }
                  }
                }
              }
            }
            JOINT Neck
            {
              OFFSET 5.0226 -0.0266342 0
              CHANNELS 3 Zrotation Xrotation Yrotation
              JOINT Head
              {
                OFFSET 6.69363 2.86102e-005 0
                CHANNELS 3 Zrotation Xrotation Yrotation
                End Site
                {
                  OFFSET 0 0 0
                }
              }
            }
          }
        }
      }
    }
  }
}
MOTION
Frames:	18
Frame Time:	0.0416667
35.3429 7.21883 41.5314 3.04903 -11.0488 -1.26631 -173.725 -4.31632 91.698 -41.2278 47.6379 16.848 88.763 16.7475 3.96708 -2.08824 -5.10392 -12.1559 173.634 -18.3764 88.6337 -8.61149 -6.51421 -0.689703 86.525 -10.571 1.46815 38.0395 0.339412 5.259 -0.0508825 6.3847 -89.7394 14.1041 0.0268376 0.519174 2.43306 0.0496644 0.517488 -20.1013 -0.130435 0.503223 -0.088673 -0.130433 0.503227 97.212 -30.7801 -91.9761 23.1292 -39.09 16.3383 9.19065 -3.98518 -144.683 77.1093 9.38053 6.75131 -85.0131 -30.1207 83.1021 -2.52768 18.9857 14.709 77.0433 -37.0109 -105.691 -80.8545 30.9038 -41.6702 39.3114 -2.77981 -6.373 8.7499 0.863444 4.2762 
35.2809 7.30768 41.5205 2.98026 -11.0963 -1.3486 -173.801 -4.1993 91.5533 -40.9111 47.0011 16.6565 88.1665 16.0694 3.36835 0.801226 -4.28194 -11.9702 173.647 -18.3721 88.6341 -8.62381 -6.9723 -0.74605 86.3734 -10.6393 0.867238 38.4412 0.361642 5.54588 -0.00575283 6.33939 -89.7614 14.1947 0.105656 0.464247 2.52365 0.125983 0.459132 -20.0109 -0.0387563 0.474534 0.00179959 -0.0387546 0.474529 97.4192 -29.9821 -91.687 26.9095 -41.9511 18.5378 13.1737 -7.94328 -144.66 81.5453 16.0571 13.5576 -85.6536 -31.1769 82.1055 -1.66195 19.225 15.1957 76.9583 -36.7692 -105.585 -81.0663 31.0125 -41.6593 37.5291 -2.75916 -5.2527 10.5051 0.223305 3.35315 
35.2982 7.28687 41.5089 3.05906 -11.0662 -1.37814 -173.826 -4.19607 91.5213 -40.867 47.0232 16.6444 88.4183 16.1534 3.24292 0.615744 -4.78135 -11.2588 173.601 -18.3962 88.6103 -8.62244 -6.97283 -0.734709 86.3538 -10.6786 0.620064 39.3875 0.387576 6.4023 -0.0190334 6.32953 -89.7601 14.2144 0.0800303 0.470409 2.54334 0.100666 0.466434 -19.9911 -0.0650515 0.472711 0.0215247 -0.0650484 0.472722 96.7134 -30.5509 -93.0175 26.5781 -40.4754 19.5837 13.4613 -9.06376 -144.756 81.0345 16.0733 13.6837 -85.782 -31.3665 81.905 -1.3921 19.0637 15.4765 76.0917 -36.6447 -106.442 -81.944 31.987 -42.2604 37.3283 -2.62795 -5.10133 10.5025 0.225588 3.00837 
35.3339 7.26877 41.524 3.15548 -11.0333 -1.35034 -173.902 -4.17103 91.466 -40.9978 47.1045 16.828 88.4954 16.2114 3.27585 1.06452 -5.25905 -10.2389 173.591 -18.4391 88.6402 -8.61665 -6.69556 -0.715333 86.3025 -10.6832 0.583988 40.8018 0.445676 7.72076 -0.0393372 6.36306 -89.759 14.1474 0.0402006 0.478055 2.4764 0.0612077 0.47582 -20.0581 -0.105332 0.468033 -0.0454322 -0.10533 0.468036 96.9183 -30.4344 -92.6251 26.2742 -40.645 18.8692 12.4143 -7.96553 -145.043 82.1618 14.6534 11.7196 -85.4473 -30.7426 82.4028 -1.98325 18.8755 15.0155 76.3085 -36.7966 -106.392 -82.0448 32.3388 -42.6177 37.8919 -2.65035 -5.38082 10.5581 0.410509 3.41413 
35.3141 7.28751 41.5258 3.10448 -10.9835 -1.38421 -173.94 -4.17133 91.4292 -40.7836 46.77 16.714 88.6283 16.1393 3.01063 2.15567 -5.6831 -8.92101 173.643 -18.4445 88.694 -8.62054 -6.66027 -0.752609 86.1686 -10.7384 0.202521 42.6497 0.583847 9.36568 -0.0257282 6.29714 -89.7699 14.2792 0.0620957 0.453244 2.60814 0.081982 0.450078 -19.9264 -0.0770022 0.450978 0.0862555 -0.0769931 0.450959 96.3739 -30.3844 -93.7342 27.9545 -40.3052 20.7282 13.9839 -9.64743 -144.602 79.4808 16.6676 14.8936 -86.1099 -31.5844 81.3353 -1.42077 19.0841 15.9958 78.1929 -36.2488 -104.223 -84.8323 28.8676 -37.0075 36.6602 -2.52301 -5.00779 11.0184 0.281188 3.13682 
35.2888 7.28037 41.5241 2.98263 -10.9802 -1.44707 -173.844 -4.18657 91.4625 -40.8291 47.2893 16.6738 88.2503 16.2626 3.63438 4.29436 -5.80651 -7.41567 173.668 -18.5186 88.7281 -8.63555 -7.09136 -0.825893 85.9631 -10.8445 -0.707946 44.8354 0.834851 11.1771 -0.0193307 6.31067 -89.767 14.2521 0.0761352 0.457103 2.5811 0.0961737 0.453307 -19.9534 -0.064765 0.458841 0.0592426 -0.064768 0.458858 96.7196 -31.2419 -92.8822 24.1367 -39.9235 19.311 12.8334 -9.30409 -145.154 81.517 14.9076 12.1976 -85.9881 -31.5323 81.5528 -1.67728 18.7938 15.9271 79.1626 -37.15 -103.958 -81.2225 29.1564 -39.3508 37.1248 -2.30145 -4.30886 10.7571 0.104754 2.48117 
35.2717 7.28967 41.5261 3.1221 -10.973 -1.43677 -173.861 -4.11159 91.4764 -40.94 47.3297 16.7216 88.1673 16.2292 3.67304 6.45978 -6.05936 -5.56164 173.736 -18.6114 88.8674 -8.6349 -6.8814 -0.840036 85.7989 -10.9226 -1.24064 47.1348 1.17043 13.1131 -0.03676 6.31027 -89.7776 14.2531 0.0364264 0.441428 2.58205 0.0558179 0.439376 -19.9525 -0.0979238 0.431963 0.0601301 -0.0979254 0.431967 96.9073 -31.2485 -92.5076 23.0529 -39.8899 18.8156 13.6932 -10.6167 -145.1 80.7403 15.4857 13.1001 -86.0003 -31.7602 81.581 -1.41954 18.6888 15.9884 76.7891 -36.7006 -105.762 -82.9586 30.4877 -39.9129 37.2502 -2.10393 -3.81525 10.5741 0.02403 2.13381 
35.3574 7.27803 41.5222 3.17805 -10.8453 -1.45687 -174.049 -4.03844 91.2903 -40.7687 46.7677 16.7393 88.6041 16.0971 2.96747 7.98444 -7.00117 -2.78818 173.651 -18.5824 88.8336 -8.63416 -7.00897 -0.826049 85.6348 -10.9978 -1.92268 49.5084 1.61 15.008 -0.0751988 6.27789 -89.7677 14.3178 -0.0347711 0.471051 2.64684 -0.0139977 0.472122 -19.8877 -0.174728 0.438825 0.124914 -0.174729 0.438819 96.473 -31.7747 -93.2778 22.1287 -39.3505 19.1014 13.7599 -11.2216 -145.272 80.8383 15.376 12.9434 -85.7845 -31.7101 81.9781 -1.58848 19.0463 16.1365 77.8197 -36.5103 -103.818 -83.805 26.8957 -35.31 36.9274 -2.12984 -4.28461 10.8837 0.220128 2.24808 
35.3372 7.24626 41.549 3.12408 -10.8954 -1.44976 -173.872 -4.07064 91.4243 -40.8989 47.2082 16.6625 88.2277 16.2179 3.56479 10.7471 -7.01087 -0.625862 173.743 -18.7489 88.9697 -8.6423 -7.03958 -0.901514 85.4523 -11.0839 -2.60299 51.865 2.13139 16.8262 -0.0249949 6.35328 -89.7817 14.1671 0.0575408 0.430135 2.49608 0.076413 0.42718 -20.0385 -0.0743981 0.427547 -0.0258857 -0.0743951 0.427522 97.458 -30.4944 -91.5258 23.3133 -40.3813 17.9839 13.4794 -10.2393 -145.438 80.51 15.0302 12.6439 -85.4728 -30.4082 82.279 -2.8504 18.6005 15.3838 77.5382 -36.4242 -104.048 -83.3992 26.6221 -35.2296 38.2706 -2.34475 -4.29775 10.3456 0.124726 2.72668 
35.3459 7.24824 41.5446 3.19165 -10.8631 -1.43937 -174.012 -4.09745 91.309 -40.9421 47.0955 16.8698 88.2571 16.225 3.58643 13.6071 -7.29781 2.38177 173.807 -18.8148 89.1003 -8.64494 -7.0417 -0.938757 85.2263 -11.1669 -3.35807 54.1653 2.72079 18.5045 -0.0694848 6.29664 -89.7633 14.2804 -0.0213391 0.478049 2.60938 -0.000276027 0.478529 -19.9251 -0.164027 0.449544 0.0875008 -0.164029 0.449536 96.3752 -32.4127 -93.3542 21.3569 -39.0662 19.0399 14.0151 -11.7314 -145.345 80.2906 15.6488 13.4317 -85.8092 -31.2924 81.8361 -1.86925 18.7132 16.2753 77.2662 -36.4184 -104.098 -83.2786 26.434 -35.0766 37.3305 -2.13542 -4.51046 10.7062 0.37198 2.58905 
35.3585 7.25338 41.5476 3.2126 -10.8037 -1.51619 -174.03 -4.04991 91.2499 -40.7786 47.0003 16.7271 88.3775 16.209 3.41557 15.9962 -7.60361 5.27537 173.81 -18.8342 89.1147 -8.64872 -7.00247 -0.992553 85.0614 -11.2424 -3.94128 56.2896 3.331 19.9991 -0.0646363 6.28195 -89.7598 14.3097 -0.00993672 0.483612 2.63867 0.0113618 0.483572 -19.8958 -0.154822 0.458275 0.116841 -0.154817 0.458264 96.8666 -31.3513 -92.5716 23.2133 -40.094 18.9509 13.7134 -10.648 -145.326 80.4319 15.6285 13.3629 -85.6894 -31.113 82.023 -2.2364 19.1489 16.2249 77.6002 -36.51 -103.788 -83.3239 26.5169 -35.147 37.0277 -2.18187 -4.41636 11.1346 0.27347 2.51067 
35.3464 7.26198 41.547 3.27151 -10.6773 -1.45383 -174.081 -3.87502 91.2961 -40.6927 46.6848 16.7093 88.75 16.0693 2.73881 18.3675 -7.99759 8.59185 173.995 -18.7899 89.3586 -8.64926 -6.76406 -1.04956 84.8889 -11.3061 -4.42707 58.2332 3.94187 21.3126 -0.0746793 6.26967 -89.7578 14.3342 -0.0287877 0.490958 2.66321 -0.00715802 0.491741 -19.8713 -0.175016 0.459618 0.141378 -0.175013 0.459599 96.3318 -32.1226 -93.5373 22.0049 -39.1269 19.2206 13.8669 -11.4081 -145.408 80.2961 15.6856 13.4722 -85.8539 -31.1073 81.7029 -2.13163 18.8692 16.4614 77.6418 -36.4748 -104.009 -83.4476 27.1734 -35.8367 36.7002 -2.31656 -4.91311 11.4117 0.411906 2.81793 
35.3708 7.2444 41.5625 3.18729 -10.7567 -1.50052 -174.039 -4.02744 91.2333 -40.7316 46.8825 16.7178 88.3257 16.1591 3.36824 21.4863 -7.31882 10.684 173.992 -18.9364 89.3673 -8.66447 -7.12104 -1.13414 84.7008 -11.3864 -5.24027 60.0391 4.5528 22.3625 0.069988 6.5732 -89.9027 13.7273 0.186156 0.170528 2.05636 0.193485 0.16216 -20.4788 0.126302 0.218591 -0.466113 0.126302 0.218577 100.148 -24.7811 -86.539 27.618 -43.3338 13.8717 12.3698 -7.81328 -145.181 81.1723 15.3936 12.8602 -83.9596 -28.5368 84.8434 -5.26235 18.2467 11.7599 78.1364 -36.3027 -103.883 -83.4833 26.418 -34.9519 42.6604 -1.85699 -1.61312 8.24227 -0.773632 1.43418 
35.3265 7.25558 41.5561 3.18914 -10.755 -1.53443 -174.023 -4.03768 91.2498 -40.6209 46.9095 16.658 88.3757 16.177 3.34062 23.6345 -7.12589 12.9455 174.139 -18.9806 89.5115 -8.67386 -7.04077 -1.2388 84.5752 -11.4483 -5.68612 61.5578 5.09482 23.2487 0.326614 7.07806 -90.0749 12.7186 0.612963 -0.222162 1.04776 0.60259 -0.248931 -21.4886 0.651395 -0.0276745 -1.47594 0.651393 -0.0276691 103.892 -16.1721 -77.708 31.8962 -48.5599 5.44448 11.8354 -5.50858 -144.129 82.1312 16.636 13.9727 -80.806 -22.633 90.4591 -12.3399 18.7938 3.13983 83.2959 -36.0121 -102.017 -83.1268 29.2685 -38.4058 50.83 -1.37059 1.46706 4.52747 -2.03444 1.13546 
35.3517 7.26587 41.5684 3.14106 -10.6883 -1.5357 -174.026 -3.92513 91.2251 -40.6831 46.9372 16.6389 88.3301 16.1047 3.23012 25.3274 -7.06643 15.0996 174.223 -18.937 89.5772 -8.67877 -7.08588 -1.31173 84.5111 -11.4919 -5.98461 62.8048 5.55814 23.9219 0.510261 7.49042 -90.2427 11.8955 0.900438 -0.580444 0.224692 0.874022 -0.619518 -22.3127 1.03325 -0.282969 -2.30001 1.03325 -0.282972 105.728 -10.7677 -71.8272 32.2943 -51.6 -2.12658 11.014 -3.13617 -143.302 82.3163 16.6355 13.9067 -78.502 -19.4432 95.3911 -16.4928 20.4624 -4.14731 83.9253 -35.279 -101.01 -82.7179 27.2768 -36.3603 56.2229 -0.672952 3.60257 2.89678 -2.83069 1.14352 
35.3652 7.2613 41.5588 3.29231 -10.6424 -1.54271 -174.108 -3.83815 91.1699 -40.7444 46.7281 16.6999 88.5765 16.0877 2.94418 25.5098 -7.18531 15.6565 174.299 -18.9217 89.6624 -8.67987 -7.06936 -1.36509 84.4938 -11.5374 -6.28356 63.802 5.93808 24.3942 0.628312 7.83217 -90.3627 11.2133 1.08187 -0.828369 -0.457443 1.04436 -0.875183 -22.9954 1.28079 -0.464904 -2.98274 1.2808 -0.464903 106.831 -7.41104 -67.5097 30.8504 -53.1151 -8.85565 10.0839 -1.46283 -142.569 83.8925 15.3392 11.9909 -76.7562 -17.5675 99.4864 -19.2029 22.4232 -10.2078 88.0318 -34.731 -99.2769 -82.8789 29.5828 -38.9012 59.9426 0.00353592 4.92653 2.37394 -3.22856 1.31259 
35.39 7.26589 41.5588 3.38077 -10.7336 -1.46327 -174.006 -3.89405 91.2791 -40.9355 47.3104 16.8266 88.3556 16.269 3.49925 25.8123 -7.02356 15.6872 174.425 -19.0176 89.7974 -8.68517 -7.06207 -1.42616 84.519 -11.5508 -6.3559 64.4956 6.20661 24.6983 0.706733 8.11902 -90.4716 10.6408 1.19052 -1.04554 -1.03007 1.14336 -1.09695 -23.5681 1.44971 -0.639372 -3.55544 1.4497 -0.639399 107.488 -5.15655 -64.4855 29.1642 -54.0038 -14.5594 10.0408 -0.66262 -141.745 84.3177 15.3125 11.8305 -75.4496 -15.9604 102.767 -21.5778 23.8944 -14.5069 89.5187 -34.2969 -98.1724 -82.2938 28.8625 -38.4204 62.6397 0.595465 5.82607 2.01735 -3.45098 1.4631 
35.3619 7.24427 41.5587 3.21806 -10.7057 -1.54276 -174.042 -3.93857 91.2092 -40.7287 46.774 16.6651 88.5777 16.1397 3.02075 23.972 -7.51371 14.3248 174.561 -18.9627 89.7844 -8.69675 -7.06511 -1.57809 84.7049 -11.5461 -5.99318 64.8017 6.32608 24.8249 0.823749 8.32568 -90.5446 10.2291 1.39261 -1.20037 -1.44172 1.33843 -1.2605 -23.9809 1.68896 -0.726299 -3.96826 1.68897 -0.726295 107.923 -3.47124 -62.1788 28.3597 -53.9445 -17.8463 9.54081 -0.229947 -141.439 84.6476 15.2568 11.675 -74.4914 -14.9958 105.261 -22.672 25.7801 -18.7131 90.7901 -33.5201 -97.056 -81.9673 28.4833 -38.165 64.3144 0.893907 6.62232 2.39755 -3.82214 1.97235 
